# xmcd CD database file
#
# Track frame offsets:
#	150
#	11390
#	22600
#	34267
#	46237
#	58777
#	72760
#	86965
#	100532
#
# Disc length: 1514 seconds
#
# Revision: 3
# Processed by: cddbd v1.5.2PL0 Copyright (c) Steve Scherf et al.
# Submitted via: jetAudio 5
#
DISCID=6305e809
DTITLE=Conway Twitty - Conway Twitty At His Best
DYEAR=1900
DGENRE=
TTITLE0=Hello Darlin'
TTITLE1=It's Only Make Believe
TTITLE2=To See My Angel Cry
TTITLE3=She Needs Someone To Hold Her (When She Cries)
TTITLE4=This Time I've Hurt Her More (Than She Loves Me)
TTITLE5=Fifteen Years Ago
TTITLE6=You've Never Been This Far Before
TTITLE7=The Games That Daddies Play
TTITLE8=Danny Boy
EXTD=
EXTT0=
EXTT1=
EXTT2=
EXTT3=
EXTT4=
EXTT5=
EXTT6=
EXTT7=
EXTT8=
PLAYORDER=
